<svg width="60" height="36" viewBox="0 0 60 36" fill="none" xmlns="http://www.w3.org/2000/svg">
<path d="M9.57679 11.4424C9.57679 14.7388 9.57679 18.1451 9.57679 21.4415C9.57679 22.2106 9.35663 22.5403 8.58609 22.4304C7.59538 22.4304 6.60468 22.3205 5.5039 22.4304C4.62328 22.5403 4.40312 22.3205 4.40312 21.3316C4.40312 16.1672 4.40312 11.0029 4.40312 5.83849C4.40312 4.84957 4.07289 4.51993 3.19226 4.62981C2.42172 4.73969 1.65117 4.62981 0.770546 4.62981C0.220156 4.62981 0 4.51993 0 3.86065C0 2.98161 0 2.10256 0 1.11364C0 0.564243 0.220156 0.344482 0.770546 0.344482C3.41242 0.344482 6.05429 0.344482 8.69617 0.344482C9.46671 0.344482 9.68687 0.674123 9.68687 1.3334C9.57679 4.73969 9.57679 8.14597 9.57679 11.4424Z" fill="#FF0083"/>
<path d="M34.7849 10.1236C34.1244 4.73949 29.5011 0.234408 23.9972 0.0146481C17.2825 -0.314992 11.8886 4.95925 11.9987 11.7718C11.9987 12.541 12.1088 13.5299 12.329 14.4089C14.3104 22.1006 23.7771 25.397 30.1616 20.6721C30.712 20.2326 30.8221 20.0128 30.2717 19.4634C27.5197 16.7164 24.7678 13.9694 22.0158 11.3323C21.7957 11.1125 21.6856 11.0027 21.4654 10.7829C21.1352 10.3434 21.1352 10.0137 21.4654 9.57422C21.7957 9.24458 22.236 9.24458 22.5662 9.57422C22.7864 9.6841 23.0065 9.90386 23.1166 10.0137C25.8686 12.7607 28.5104 15.3979 31.2624 18.1449C32.0329 18.914 32.143 18.914 32.8035 18.035C34.3446 15.6176 35.1151 13.0904 34.7849 10.1236ZM21.3554 19.4634C21.0251 19.5733 20.6949 19.5733 20.3647 19.3536C18.7135 17.7054 17.0623 16.0571 15.4111 14.4089C15.0809 13.9694 15.0809 13.6398 15.5212 13.2003C15.8515 12.8706 16.2918 12.7607 16.7321 13.2003C18.3833 14.8485 20.0344 16.4967 21.6856 18.035C21.9057 18.2547 21.9057 18.3646 21.9057 18.5844C21.9057 18.6943 21.9057 18.914 21.7957 19.0239C21.6856 19.2437 21.5755 19.3536 21.3554 19.4634ZM22.8964 14.5188C23.1166 14.7386 23.1166 14.9583 23.1166 15.1781C23.1166 15.3979 23.0065 15.6176 22.8964 15.8374C22.7864 15.8374 22.7864 15.9473 22.6763 15.9473C22.3461 16.167 22.0158 16.167 21.6856 15.8374C20.805 14.9583 19.8143 14.0793 18.9336 13.0904C18.6034 12.7607 18.6034 12.3212 19.0437 11.8817C19.374 11.4422 19.8143 11.4422 20.1445 11.7718C21.1352 12.6509 22.0158 13.6398 22.8964 14.5188ZM27.85 10.7829C27.7399 11.1125 27.4097 11.2224 27.0794 11.2224C26.8593 11.2224 26.529 11.1125 26.4189 11.0027C25.5383 10.1236 24.5476 9.35446 23.7771 8.36554C23.4468 7.92602 23.5569 7.59638 23.8872 7.15686C24.3275 6.82722 24.6577 6.82722 25.098 7.15686C25.9786 8.0359 26.8593 8.91494 27.7399 9.79398C27.96 10.0137 27.96 10.3434 27.85 10.7829ZM31.1523 9.79398C30.712 10.1236 30.3818 10.1236 29.9414 9.6841C28.2903 8.0359 26.7492 6.49758 25.098 4.84937C24.7678 4.51973 24.7678 4.19009 24.8779 3.86045C24.9879 3.53081 25.3182 3.42093 25.6484 3.42093C26.0887 3.42093 26.3089 3.64069 26.6391 3.86045C28.0701 5.28889 29.5011 6.71734 30.8221 8.0359C30.9321 8.14578 31.0422 8.36554 31.1523 8.47542C31.5926 9.02482 31.5926 9.35446 31.1523 9.79398Z" fill="#FF0083"/>
<path d="M48.6551 0.0146484C42.2706 0.0146484 37.207 4.95926 37.0969 11.4422C36.9868 17.7054 42.2706 22.8697 48.545 22.8697C54.8195 22.8697 59.9931 17.8152 59.9931 11.5521C60.2133 5.72842 55.4799 0.0146484 48.6551 0.0146484ZM48.545 17.0461C45.4628 17.0461 43.1512 14.6287 43.1512 11.4422C43.1512 8.36554 45.683 5.94818 48.6551 5.94818C51.6272 5.94818 54.159 8.47542 54.159 11.5521C54.159 14.6287 51.6272 17.0461 48.545 17.0461Z" fill="#FF0083"/>
<path d="M11.0607 24.8807V35.9999H7.78346V31.8928C6.86173 32.3937 5.73518 32.594 4.60863 32.594C3.07242 32.594 1.94586 32.2935 1.12655 31.5923C0.30724 30.8911 0 29.8894 0 28.3868V24.8807H3.27724V28.1864C3.27724 28.8876 3.48207 29.3885 3.78931 29.689C4.09656 29.9895 4.71104 30.1899 5.32552 30.1899C6.14483 30.1899 6.96415 29.9895 7.78346 29.689V24.8807H11.0607Z" fill="black"/>
<path d="M21.482 26.0121C22.3669 26.8032 22.8585 27.9899 22.8585 29.671V35.901H19.909V34.5166C19.3191 35.5055 18.2376 35.9999 16.5662 35.9999C15.7796 35.9999 14.9931 35.901 14.4032 35.6043C13.8133 35.3077 13.3217 34.9121 13.0267 34.4177C12.7318 33.9232 12.5352 33.3299 12.5352 32.7366C12.5352 31.7477 12.9284 30.9566 13.715 30.3632C14.5015 29.7699 15.6813 29.4732 17.2544 29.4732H19.7123C19.7123 28.781 19.5157 28.2866 19.1224 27.891C18.7291 27.4955 18.0409 27.2977 17.1561 27.2977C16.5662 27.2977 15.9763 27.3966 15.4847 27.5943C14.8948 27.7921 14.4032 27.9899 14.1082 28.3855L12.9284 26.2099C13.5183 25.8143 14.2065 25.4188 15.0914 25.221C15.8779 25.0232 16.7628 24.9243 17.6477 24.9243C19.319 24.7266 20.5972 25.221 21.482 26.0121ZM18.8275 33.5277C19.2207 33.231 19.5157 32.9343 19.7123 32.4399V31.2532H17.5493C16.2712 31.2532 15.583 31.6488 15.583 32.5388C15.583 32.9343 15.7796 33.231 16.0746 33.5277C16.3695 33.7255 16.8611 33.9232 17.3527 33.9232C17.8443 33.9232 18.3359 33.7255 18.8275 33.5277Z" fill="black"/>
<path d="M27.2967 35.2127C26.4079 34.7207 25.6178 34.0319 25.124 33.2447C24.6303 32.3591 24.334 31.4735 24.334 30.3911C24.334 29.3087 24.6303 28.3247 25.124 27.5375C25.6178 26.6519 26.4079 26.0615 27.2967 25.5695C28.1855 25.0775 29.2718 24.8807 30.4569 24.8807C31.642 24.8807 32.6295 25.0775 33.5183 25.5695C34.4071 26.0615 34.9997 26.7503 35.3947 27.6359L32.9258 28.9151C32.3332 27.9311 31.5432 27.4391 30.4569 27.4391C29.6668 27.4391 28.9755 27.7343 28.383 28.2263C27.8892 28.7183 27.5929 29.5055 27.5929 30.3911C27.5929 31.2767 27.8892 32.0639 28.383 32.5559C28.8768 33.0479 29.5681 33.3431 30.4569 33.3431C31.5432 33.3431 32.3332 32.8511 32.9258 31.8671L35.3947 33.2447C34.9997 34.1303 34.4071 34.8191 33.5183 35.3111C32.6295 35.8031 31.642 35.9999 30.4569 35.9999C29.2718 35.9015 28.2842 35.7047 27.2967 35.2127Z" fill="black"/>
<path d="M38.477 35.305C37.5523 34.8086 36.833 34.1136 36.2165 33.3194C35.7028 32.4259 35.3945 31.5324 35.3945 30.4403C35.3945 29.3483 35.7028 28.3555 36.2165 27.5612C36.7303 26.6677 37.4495 26.0721 38.477 25.5757C39.5045 25.0793 40.532 24.8807 41.6623 24.8807C42.7925 24.8807 43.9228 25.0793 44.8475 25.5757C45.7723 26.0721 46.4915 26.767 47.108 27.5612C47.6217 28.4548 47.93 29.3483 47.93 30.4403C47.93 31.5324 47.6217 32.5252 47.108 33.3194C46.5942 34.2129 45.875 34.8086 44.8475 35.305C43.9228 35.8013 42.7925 35.9999 41.6623 35.9999C40.532 35.9999 39.4018 35.8013 38.477 35.305ZM43.7173 32.6244C44.231 32.0288 44.5393 31.3338 44.5393 30.4403C44.5393 29.5468 44.231 28.7526 43.7173 28.2562C43.2035 27.6605 42.4843 27.462 41.6623 27.462C40.8403 27.462 40.121 27.7598 39.6073 28.2562C39.0935 28.8519 38.7853 29.5468 38.7853 30.4403C38.7853 31.3338 39.0935 32.128 39.6073 32.6244C40.121 33.2201 40.8403 33.4187 41.6623 33.4187C42.4843 33.4187 43.2035 33.1208 43.7173 32.6244Z" fill="black"/>
<path d="M59.7276 32.8663C59.7276 33.8771 59.3306 34.6858 58.6357 35.1912C57.8416 35.6966 56.7497 35.9999 55.2608 35.9999H49.4043V24.8807H55.0623C56.4519 24.8807 57.5438 25.184 58.2387 25.6894C59.0328 26.1948 59.4298 26.9024 59.4298 27.8122C59.4298 28.3176 59.3306 28.823 59.0328 29.2273C58.735 29.6317 58.3379 29.9349 57.8416 30.2382C59.132 30.6425 59.7276 31.5522 59.7276 32.8663ZM52.3822 29.5306H54.7645C55.8564 29.5306 56.4519 29.1262 56.4519 28.3176C56.4519 27.5089 55.8564 27.1046 54.7645 27.1046H52.3822V29.5306ZM56.7497 32.6641C56.7497 32.2598 56.6505 31.9566 56.3527 31.7544C56.0549 31.5522 55.6578 31.4512 55.0623 31.4512H52.2829V33.8771H54.963C56.1542 33.8771 56.7497 33.4728 56.7497 32.6641Z" fill="black"/>
</svg>
