<svg width="8" height="12" viewBox="0 0 8 12" fill="none" xmlns="http://www.w3.org/2000/svg">
<g clip-path="url(#clip0_98_506)">
<path d="M0 12C0 11.925 0 11.925 0 11.85C0 11.475 0 11.1 0 10.725C0 10.65 0 10.575 0.15 10.575C2.55 10.575 4.95 10.575 7.35 10.575C7.425 10.575 7.5 10.575 7.5 10.725C7.5 11.1 7.5 11.475 7.5 11.85C7.5 11.925 7.5 11.925 7.5 12C5.025 12 2.55 12 0 12Z" fill="#3E76AA"/>
<path d="M6.8252 10.125C4.8002 10.125 2.8502 10.125 0.825195 10.125C0.825195 10.05 0.825195 10.05 0.825195 9.97499C0.825195 9.67499 0.825195 9.37499 0.825195 9.07499C0.825195 8.77499 0.975195 8.47499 1.2002 8.24999C2.0252 7.64999 2.8502 6.97499 3.6752 6.29999C3.7502 6.29999 3.7502 6.29999 3.8252 6.37499C4.6502 7.04999 5.4752 7.64999 6.3752 8.24999C6.6752 8.47499 6.8252 8.77499 6.8252 9.07499C6.8252 9.44999 6.8252 9.74999 6.8252 10.125Z" fill="#3E76AA"/>
<path d="M3.75 5.7C3.075 5.175 2.4 4.65 1.725 4.125C1.5 3.9 1.275 3.75 1.05 3.525C0.9 3.375 0.75 3.15 0.75 2.925C0.75 2.55 0.75 2.25 0.75 1.875C2.775 1.875 4.725 1.875 6.75 1.875C6.75 1.95 6.75 2.025 6.75 2.1C6.75 2.325 6.75 2.55 6.75 2.85C6.75 3.15 6.6 3.375 6.375 3.6C5.55 4.275 4.65 4.95 3.75 5.7C3.825 5.7 3.75 5.7 3.75 5.7Z" fill="#3E76AA"/>
<path d="M3.75 1.425C2.55 1.425 1.35 1.425 0.15 1.425C0 1.425 0 1.425 0 1.275C0 0.9 0 0.525 0 0.15C0 0 0 0 0.15 0C2.55 0 4.95 0 7.35 0C7.5 0 7.5 0 7.5 0.15C7.5 0.525 7.5 0.9 7.5 1.275C7.5 1.35 7.5 1.425 7.35 1.425C6.15 1.425 4.95 1.425 3.75 1.425Z" fill="#3E76AA"/>
</g>
<defs>
<clipPath id="clip0_98_506">
<rect width="7.5" height="12" fill="white"/>
</clipPath>
</defs>
</svg>
